:version 1.10
:name ASF
:units
  mass 1
  length 1
  angle deg
:documentation
  ASF file generated by Kaydara
:root
  axis xyz
  order  tx ty tz rx ry rz
  position 0 0 0
  orientation 0 0 0
:bonedata
  begin
    id 1
    name LeftUpLegDummy
    direction 1 -2.30186e-007 -8.31532e-007
    length 2.93387
    axis 0 0 0 xyz
  end
  begin
    id 2
    name LeftUpLeg
    direction -1.82929e-007 -1 -1.48925e-009
    length 17.3336
    axis -3.48766 0.00143442 -0.000521554 xyz
    dof rx ry rz
  end
  begin
    id 3
    name LeftLeg
    direction -1.82929e-007 -1 -5.23717e-011
    length 14.9995
    axis 3.68178 -0.00654042 -0.000282425 xyz
    dof rx ry rz
  end
  begin
    id 4
    name LeftFoot
    direction 8.31532e-007 -4.54534e-011 1
    length 6.74421
    axis 1.87234e-006 4.66016e-005 -5.96866e-006 xyz
    dof rx ry rz
  end
  begin
    id 5
    name LeftToes
    direction 0.00818058 -0.00485161 0.999955
    length 3.85048
    axis 1.06247e-005 4.65869e-005 -5.96999e-006 xyz
    dof rx ry rz
  end
  begin
    id 6
    name SpineDummy
    direction -5.8607e-008 0.943407 -0.331637
    length 5.93572
    axis 0 0 0 xyz
  end
  begin
    id 7
    name Spine
    direction -1.04988e-007 0.999988 0.00495137
    length 10.1015
    axis -0.001389 0.000121417 6.61666e-006 xyz
    dof rx ry rz
  end
  begin
    id 8
    name Spine1
    direction 0 0 0
    length 0
    axis -0.001389 0.00012144 6.56766e-006 xyz
    dof rx ry rz
  end
  begin
    id 9
    name RightShoulderDummy
    direction -0.98348 0.17941 -0.0240696
    length 3.59882
    axis -0.001389 0.00012144 6.56766e-006 xyz
  end
  begin
    id 10
    name RightShoulder
    direction -0.978693 0.204882 0.0135597
    length 2.70001
    axis 0.215806 0.000203631 -0.00679732 xyz
    dof rx ry rz
  end
  begin
    id 11
    name RightArm
    direction -1 3.85509e-006 8.31394e-007
    length 10.2459
    axis -23.2009 -0.134239 -0.964098 xyz
    dof rx ry rz
  end
  begin
    id 12
    name RightForeArm
    direction -1 3.85569e-006 8.3129e-007
    length 8.16799
    axis -9.92322 0.0658061 0.17887 xyz
    dof rx ry rz
  end
  begin
    id 13
    name RightHand
    direction -0.992843 -0.0414604 0.112003
    length 5.28593
    axis -0.00960638 0.00330669 -0.185225 xyz
    dof rx ry rz
  end
  begin
    id 14
    name LeftShoulder1Dummy
    direction 0.983523 0.179172 -0.0240748
    length 3.59866
    axis -0.001389 0.00012144 6.56766e-006 xyz
  end
  begin
    id 15
    name LeftShoulder1
    direction 0.978627 0.205195 0.0135605
    length 2.70019
    axis -0.001389 0.00012144 6.57583e-006 xyz
    dof rx ry rz
  end
  begin
    id 16
    name LeftArm
    direction 1 3.51895e-006 -8.60188e-007
    length 10.2459
    axis -23.1894 0.134785 0.967513 xyz
    dof rx ry rz
  end
  begin
    id 17
    name LeftForeArm
    direction 1 3.51921e-006 -7.32029e-007
    length 8.16799
    axis -9.91835 -0.0656957 -0.177789 xyz
    dof rx ry rz
  end
  begin
    id 18
    name LeftHand
    direction 0.992938 -0.0411636 0.11126
    length 5.32135
    axis -0.00960237 -0.00340661 0.185177 xyz
    dof rx ry rz
  end
  begin
    id 19
    name HEadDummy
    direction 1.01974e-006 0.999861 -0.016675
    length 2.99946
    axis -0.001389 0.00012144 6.56766e-006 xyz
  end
  begin
    id 20
    name HEad
    direction -0.0222689 0.980941 0.193023
    length 5.12695
    axis -0.001389 0.00012144 6.56766e-006 xyz
    dof rx ry rz
  end
  begin
    id 21
    name RightUpLegDummy
    direction -1 2.30186e-007 8.31532e-007
    length 2.93387
    axis 0 0 0 xyz
  end
  begin
    id 22
    name RightUpLeg
    direction -1.82966e-007 -1 1.56832e-007
    length 17.3336
    axis -3.4909 -0.000906625 0.00028951 xyz
    dof rx ry rz
  end
  begin
    id 23
    name RightLeg
    direction -1.82786e-007 -1 -1.80317e-007
    length 14.9995
    axis 3.68513 0.0193739 -0.131021 xyz
    dof rx ry rz
  end
  begin
    id 24
    name RightFoot
    direction 8.31721e-007 -4.63324e-011 1
    length 6.74421
    axis 4.81691e-005 -0.120479 -0.188785 xyz
    dof rx ry rz
  end
  begin
    id 25
    name RightToes
    direction 0.00124746 -0.014064 0.9999
    length 3.85082
    axis 0.000481921 0.542163 -0.142575 xyz
    dof rx ry rz
  end
:hierarchy
  begin
    root LeftUpLegDummy SpineDummy RightUpLegDummy
    LeftUpLegDummy LeftUpLeg
    LeftUpLeg LeftLeg
    LeftLeg LeftFoot
    LeftFoot LeftToes
    SpineDummy Spine
    Spine Spine1
    Spine1 RightShoulderDummy LeftShoulder1Dummy HEadDummy
    RightShoulderDummy RightShoulder
    RightShoulder RightArm
    RightArm RightForeArm
    RightForeArm RightHand
    LeftShoulder1Dummy LeftShoulder1
    LeftShoulder1 LeftArm
    LeftArm LeftForeArm
    LeftForeArm LeftHand
    HEadDummy HEad
    RightUpLegDummy RightUpLeg
    RightUpLeg RightLeg
    RightLeg RightFoot
    RightFoot RightToes
  end

:SAMPLES-PER-SECOND 30
:FULLY-SPECIFIED
:DEGREES
62
root  -3.07309 33.9935 -8.27398 2.62346 76.4226 -4.02283
LeftUpLeg  -4.81996 8.16377 0.0071922
LeftLeg  15.3133 9.15692 1.87445
LeftFoot  -7.62074 -0.0823037 -1.24402
LeftToes  -10.9122 7.65994e-007 1.12379e-007
Spine  2.74983 -0.299123 0.26101
Spine1  5.36358 -0.726193 0.626214
RightShoulder  0.0181581 4.04243 5.77872
RightArm  -20.3217 -17.0087 72.1271
RightForeArm  25.8591 35.0049 7.09379
RightHand  0.884198 -13.4084 -7.13799
LeftShoulder1  0.0318913 -0.377685 -9.1185
LeftArm  -9.14732 11.3581 -68.0459
LeftForeArm  26.2971 -17.8111 -3.24157
LeftHand  0.151004 4.49636 3.37204
HEad  18.2582 -13.2303 -0.947537
RightUpLeg  -16.2317 -6.75431 -0.160617
RightLeg  11.717 11.7682 1.65253
RightFoot  5.54467 -0.0393761 1.15317
RightToes  -29.6177 -0.140571 -0.246747
63
root  -3.01602 34.0019 -8.23076 2.61796 76.468 -4.13547
LeftUpLeg  -4.80893 8.19396 0.091559
LeftLeg  15.2857 9.1024 1.85884
LeftFoot  -7.53764 -0.079654 -1.22369
LeftToes  -11.0839 7.65994e-007 1.12379e-007
Spine  2.76685 -0.311788 0.312305
Spine1  5.40094 -0.74565 0.715483
RightShoulder  0.0188591 3.89523 5.78469
RightArm  -19.5961 -17.7669 71.994
RightForeArm  25.2812 37.4624 7.76857
RightHand  0.906378 -13.6039 -7.21456
LeftShoulder1  0.029976 -0.357299 -9.12892
LeftArm  -9.02116 11.3481 -68.1484
LeftForeArm  26.2727 -17.9407 -3.26679
LeftHand  0.151199 4.47637 3.38494
HEad  18.2398 -13.138 -1.02372
RightUpLeg  -16.1912 -6.76251 -0.089674
RightLeg  11.67 11.7373 1.63852
RightFoot  5.44036 -0.037406 1.12825
RightToes  -29.4981 -0.139981 -0.246116
64
root  -2.95868 34.0108 -8.18522 2.63651 76.5067 -4.22986
LeftUpLeg  -4.77789 8.22617 0.178378
LeftLeg  15.2079 9.04122 1.83373
LeftFoot  -7.44505 -0.0781477 -1.20109
LeftToes  -11.2435 7.65994e-007 1.12379e-007
Spine  2.78471 -0.328263 0.368121
Spine1  5.4406 -0.768738 0.807666
RightShoulder  0.0196576 3.63251 5.74391
RightArm  -18.4036 -18.6979 71.8478
RightForeArm  24.2921 41.2762 8.91276
RightHand  0.97507 -13.7594 -7.69477
LeftShoulder1  0.0278377 -0.314077 -9.11496
LeftArm  -8.81301 11.3781 -68.2671
LeftForeArm  26.1907 -18.1073 -3.29929
LeftHand  0.149399 4.53218 3.31072
HEad  18.2306 -12.9866 -1.13222
RightUpLeg  -16.1493 -6.72902 -0.0258522
RightLeg  11.607 11.666 1.61572
RightFoot  5.32362 -0.0350916 1.09713
RightToes  -29.2951 -0.139372 -0.245521
65
root  -2.90488 34.0186 -8.14006 2.65021 76.5354 -4.31514
LeftUpLeg  -4.7752 8.22672 0.25442
LeftLeg  15.2097 9.03042 1.83184
LeftFoot  -7.36449 -0.0775223 -1.1876
LeftToes  -11.4913 7.65994e-007 1.12379e-007
Spine  2.80987 -0.366314 0.416891
Spine1  5.49387 -0.833002 0.882687
RightShoulder  0.0205109 3.29368 5.57044
RightArm  -17.0347 -19.4512 71.8379
RightForeArm  24.2146 45.7102 10.4316
RightHand  1.00467 -13.6463 -8.00796
LeftShoulder1  0.0256556 -0.295007 -9.10215
LeftArm  -8.68147 11.4624 -68.3553
LeftForeArm  26.1337 -18.2497 -3.32712
LeftHand  0.149756 4.47876 3.31268
HEad  18.1711 -12.63 -1.27423
RightUpLeg  -16.1199 -6.74867 0.0471821
RightLeg  11.5817 11.6566 1.60924
RightFoot  5.2196 -0.03343 1.07518
RightToes  -29.2558 -0.138734 -0.244954
66
root  -2.8516 34.0257 -8.09079 2.65404 76.5377 -4.39819
LeftUpLeg  -4.75403 8.19536 0.339199
LeftLeg  15.2082 9.06585 1.83873
LeftFoot  -7.31122 -0.0769666 -1.18454
LeftToes  -11.5707 7.65994e-007 1.12379e-007
Spine  2.83388 -0.40795 0.47086
Spine1  5.5438 -0.901973 0.964441
RightShoulder  0.0214161 3.04083 5.33882
RightArm  -15.3566 -20.0919 71.7441
RightForeArm  24.5965 50.7427 12.4926
RightHand  1.05234 -13.726 -8.35282
LeftShoulder1  0.0236088 -0.289902 -9.09582
LeftArm  -8.54787 11.59 -68.4524
LeftForeArm  26.0947 -18.3789 -3.35238
LeftHand  0.149027 4.54064 3.33978
HEad  18.1071 -12.0609 -1.41669
RightUpLeg  -16.0976 -6.72867 0.122578
RightLeg  11.6025 11.6309 1.61001
RightFoot  5.08637 -0.0313798 1.04616
RightToes  -29.1262 -0.138058 -0.244408
67
root  -2.79917 34.0323 -8.03847 2.6876 76.4799 -4.4519
LeftUpLeg  -4.71802 8.17385 0.41833
LeftLeg  15.1882 9.14367 1.85108
LeftFoot  -7.25174 -0.0766743 -1.18573
LeftToes  -11.6752 7.65994e-007 1.12379e-007
Spine  2.86336 -0.426142 0.526655
Spine1  5.60184 -0.924128 1.05062
RightShoulder  0.0223906 2.86731 5.06616
RightArm  -13.5178 -20.6355 71.5181
RightForeArm  25.4042 56.2824 15.3771
RightHand  1.10257 -13.7973 -8.72007
LeftShoulder1  0.0218405 -0.257683 -9.09601
LeftArm  -8.37575 11.6914 -68.5695
LeftForeArm  26.0689 -18.5804 -3.39189
LeftHand  0.147847 4.56554 3.29914
HEad  18.0615 -11.2898 -1.5877
RightUpLeg  -16.0826 -6.65945 0.2033
RightLeg  11.6281 11.6159 1.6132
RightFoot  4.97094 -0.0297268 1.02218
RightToes  -29.0353 -0.137335 -0.243874
68
root  -2.74682 34.0361 -7.98323 2.66307 76.3568 -4.56523
LeftUpLeg  -4.6625 8.1937 0.512516
LeftLeg  15.1456 9.2538 1.86607
LeftFoot  -7.21968 -0.076178 -1.19526
LeftToes  -11.8172 7.65994e-007 1.12379e-007
Spine  2.8776 -0.420904 0.586321
Spine1  5.62888 -0.89768 1.14406
RightShoulder  0.0234542 2.65292 4.72204
RightArm  -11.5663 -20.822 71.2862
RightForeArm  27.423 61.6354 19.1557
RightHand  1.15205 -13.745 -9.16246
LeftShoulder1  0.0204469 -0.229254 -9.09135
LeftArm  -8.2587 11.8893 -68.6976
LeftForeArm  26.1193 -18.9283 -3.46028
LeftHand  0.147516 4.61156 3.35303
HEad  18.0984 -10.0813 -1.77931
RightUpLeg  -16.0683 -6.58482 0.306961
RightLeg  11.6423 11.6785 1.62471
RightFoot  4.84236 -0.0284415 1.00269
RightToes  -28.9086 -0.136478 -0.243345
69
root  -2.68858 34.0407 -7.92044 2.55303 76.3202 -4.76114
LeftUpLeg  -4.61962 8.14802 0.641283
LeftLeg  15.1507 9.34485 1.88513
LeftFoot  -7.17142 -0.0761411 -1.19964
LeftToes  -11.9798 7.65994e-007 1.12379e-007
Spine  2.89051 -0.442013 0.652513
Spine1  5.64967 -0.922502 1.24629
RightShoulder  0.0246494 2.47715 4.47519
RightArm  -9.71915 -20.6238 70.9674
RightForeArm  31.2844 66.6406 24.2468
RightHand  1.17479 -13.9127 -9.23205
LeftShoulder1  0.0191345 -0.183956 -9.12452
LeftArm  -8.24213 12.097 -68.7969
LeftForeArm  26.0659 -19.2181 -3.51751
LeftHand  0.148589 4.5461 3.41749
HEad  18.2033 -8.42333 -1.95143
RightUpLeg  -16.0289 -6.63782 0.441392
RightLeg  11.6599 11.7734 1.64138
RightFoot  4.69359 -0.0271587 0.981922
RightToes  -28.6977 -0.135336 -0.242814
70
root  -2.63514 34.0458 -7.85454 2.53957 76.2596 -4.81545
LeftUpLeg  -4.60158 8.1323 0.749539
LeftLeg  15.2903 9.41796 1.92351
LeftFoot  -7.12313 -0.0761585 -1.20199
LeftToes  -12.2564 7.65994e-007 1.12379e-007
Spine  2.92488 -0.419767 0.700191
Spine1  5.71177 -0.858377 1.31129
RightShoulder  0.0272588 2.4261 4.24155
RightArm  -8.37199 -20.2792 70.7776
RightForeArm  37.5612 71.2638 31.5713
RightHand  1.18414 -13.9368 -9.29131
LeftShoulder1  0.0179148 -0.190067 -9.16325
LeftArm  -8.1321 12.2572 -68.8467
LeftForeArm  26.0057 -19.5602 -3.58533
LeftHand  0.146776 4.54931 3.31886
HEad  18.283 -6.46081 -2.08579
RightUpLeg  -15.9801 -6.6619 0.550203
RightLeg  11.7214 11.8575 1.66583
RightFoot  4.5511 -0.0259865 0.961475
RightToes  -28.6434 -0.13414 -0.242428
71
root  -2.5861 34.0501 -7.78294 2.46276 76.3073 -4.92187
LeftUpLeg  -4.59915 7.99578 0.878011
LeftLeg  15.454 9.49981 1.96819
LeftFoot  -7.10448 -0.0755137 -1.21028
LeftToes  -12.4368 7.65994e-007 1.12379e-007
Spine  2.95748 -0.396131 0.752403
Spine1  5.77185 -0.790513 1.38537
RightShoulder  0.0296106 2.34317 3.92805
RightArm  -7.20709 -19.7176 70.7472
RightForeArm  47.1046 75.1354 42.0584
RightHand  1.19362 -13.8188 -9.4518
LeftShoulder1  0.0167993 -0.201181 -9.10216
LeftArm  -7.95454 12.394 -68.9783
LeftForeArm  25.9113 -19.9463 -3.66226
LeftHand  0.144764 4.55517 3.26367
HEad  18.322 -4.21277 -2.27755
RightUpLeg  -15.909 -6.70436 0.667005
RightLeg  11.7736 11.8519 1.67597
RightFoot  4.38833 -0.0241444 0.929147
RightToes  -28.4298 -0.132874 -0.241161
72
root  -2.53826 34.0555 -7.7082 2.33646 76.3844 -5.0901
LeftUpLeg  -4.62238 7.90243 1.02525
LeftLeg  15.6332 9.53622 2.0066
LeftFoot  -7.08344 -0.0747963 -1.21215
LeftToes  -12.5853 7.65994e-007 1.12379e-007
Spine  2.98441 -0.341722 0.805238
Spine1  5.82198 -0.663599 1.46644
RightShoulder  0.0318624 2.22989 3.538
RightArm  -6.30024 -18.9851 70.8789
RightForeArm  60.5438 77.9161 56.249
RightHand  1.20018 -13.6955 -9.59483
LeftShoulder1  0.0157994 -0.206943 -9.03203
LeftArm  -7.78206 12.502 -69.1306
LeftForeArm  25.8971 -20.3698 -3.74706
LeftHand  0.143052 4.55489 3.30554
HEad  18.3908 -2.01197 -2.46478
RightUpLeg  -15.8521 -6.73607 0.797652
RightLeg  11.8405 11.8139 1.68462
RightFoot  4.23347 -0.0223449 0.895903
RightToes  -28.2172 -0.131522 -0.239604
73
root  -2.49322 34.0608 -7.62802 2.33799 76.5556 -5.11694
LeftUpLeg  -4.65645 7.73878 1.14631
LeftLeg  15.8202 9.56276 2.04455
LeftFoot  -7.02035 -0.0739436 -1.20542
LeftToes  -12.7896 7.65994e-007 1.12379e-007
Spine  3.03646 -0.263456 0.834928
Spine1  5.92075 -0.489031 1.50268
RightShoulder  0.0339884 2.21007 3.20929
RightArm  -5.6349 -18.2852 70.9692
RightForeArm  78.9099 79.5736 75.5781
RightHand  1.2318 -13.8519 -9.74013
LeftShoulder1  0.0149266 -0.239987 -8.97594
LeftArm  -7.6005 12.5499 -69.2244
LeftForeArm  25.874 -20.9175 -3.85744
LeftHand  0.14007 4.53376 3.26487
HEad  18.2372 -0.0684944 -2.5365
RightUpLeg  -15.7986 -6.82328 0.895711
RightLeg  11.9405 11.7354 1.69431
RightFoot  4.04618 -0.020051 0.853322
RightToes  -27.97 -0.130069 -0.237808
74
root  -2.44944 34.0658 -7.54156 2.30833 76.8289 -5.1759
LeftUpLeg  -4.69956 7.52283 1.29168
LeftLeg  15.9964 9.53519 2.06922
LeftFoot  -6.93966 -0.072068 -1.18854
LeftToes  -13.0997 7.65994e-007 1.12379e-007
Spine  3.10394 -0.165479 0.869061
Spine1  6.04935 -0.275183 1.54705
RightShoulder  0.0359404 2.27481 2.92319
RightArm  -5.05795 -17.7837 70.8461
RightForeArm  101.37 79.7428 99.5676
RightHand  1.2699 -13.9641 -9.96705
LeftShoulder1  0.0141923 -0.257759 -8.90042
LeftArm  -7.30508 12.5788 -69.3239
LeftForeArm  25.7942 -21.6033 -3.99688
LeftHand  0.137195 4.50399 3.22989
HEad  17.9153 1.74534 -2.60304
RightUpLeg  -15.7436 -6.91258 1.00039
RightLeg  12.058 11.5628 1.69374
RightFoot  3.83621 -0.0171877 0.80015
RightToes  -27.7431 -0.1285 -0.235823
75
root  -2.40061 34.0729 -7.44591 2.26295 77.1985 -5.25497
LeftUpLeg  -4.73693 7.36919 1.47525
LeftLeg  16.1448 9.33045 2.05034
LeftFoot  -6.82175 -0.0681262 -1.143
LeftToes  -13.4551 7.65994e-007 1.12379e-007
Spine  3.14648 -0.0921814 0.8975
Spine1  6.13014 -0.113986 1.58527
RightShoulder  0.0374888 2.17486 2.60474
RightArm  -4.21531 -17.0953 70.7284
RightForeArm  118.461 78.5381 118.224
RightHand  1.273 -13.8119 -10.1067
LeftShoulder1  0.0135419 -0.251111 -8.86196
LeftArm  -6.97124 12.7432 -69.3233
LeftForeArm  25.5804 -22.438 -4.16848
LeftHand  0.134543 4.44922 3.15678
HEad  17.715 3.48198 -2.58132
RightUpLeg  -15.6688 -7.04504 1.11436
RightLeg  12.1626 11.3331 1.68151
RightFoot  3.62335 -0.014224 0.743573
RightToes  -27.4555 -0.126798 -0.233702
